<svg id="Layer_35" enable-background="new 0 0 64 64" height="512" viewBox="0 0 64 64" width="512" xmlns="http://www.w3.org/2000/svg" xmlns:xlink="http://www.w3.org/1999/xlink"><linearGradient id="SVGID_1_" gradientUnits="userSpaceOnUse" x1="32" x2="32" y1="63" y2="1"><stop offset="0" stop-color="#9f2fff"/><stop offset="1" stop-color="#0bb1d3"/></linearGradient><path d="m58 1h-36c-2.757 0-5 2.243-5 5v21.263c-.641-.166-1.308-.263-2-.263-4.411 0-8 3.589-8 8 0 2.498 1.152 4.73 2.951 6.199-5.088.963-8.951 5.436-8.951 10.801v11h23v-12.828c0-.481.195-.953.535-1.293l1.879-1.879h29.586v-3c0-2.757-2.243-5-5-5h-1v-4h8c2.757 0 5-2.243 5-5v-24c0-2.757-2.243-5-5-5zm-49 34c0-3.309 2.691-6 6-6s6 2.691 6 6-2.691 6-6 6-6-2.691-6-6zm31.514-6c-.651-1.185-1.897-2-3.342-2-1.022 0-1.984.398-2.707 1.121l-.879.879h-10.586v-22h34v22zm-8.928 2-2 2h-6.849c-.184-.71-.46-1.381-.819-2zm-8.586 4h4.586l-1.993 1.993c-1.202 1.202-2.641 2.151-4.205 2.803 1.007-1.338 1.612-2.996 1.612-4.796zm.121 12.465c-.723.723-1.121 1.684-1.121 2.707v10.828h-14v-12h-2v12h-3v-9c0-4.963 4.037-9 9-9h4l2.521-.35c3.192-.457 6.206-1.964 8.485-4.243l8.872-8.872c.341-.34.812-.535 1.294-.535 1.008 0 1.828.82 1.828 1.828 0 .481-.195.953-.535 1.293zm30.879-3.465v1h-25.586l4-4h18.586c1.654 0 3 1.346 3 3zm-6-5h-13.586l4-4h9.586zm13-9c0 1.654-1.346 3-3 3h-17.681c.407-.587.632-1.275.664-2h16.017c1.103 0 2-.897 2-2v-22c0-1.103-.897-2-2-2h-34c-1.103 0-2 .897-2 2v22.726c-.572-.65-1.247-1.206-2-1.644v-22.082c0-1.654 1.346-3 3-3h36c1.654 0 3 1.346 3 3zm-21-21c-4.963 0-9 4.037-9 9s4.037 9 9 9 9-4.037 9-9-4.037-9-9-9zm5.736 5h-2.505c-.371-1.033-.822-1.958-1.237-2.707 1.533.457 2.845 1.425 3.742 2.707zm1.264 4c0 .695-.105 1.366-.295 2h-2.917c.129-.654.212-1.324.212-2s-.083-1.346-.212-2h2.917c.19.634.295 1.305.295 2zm-8.748 2c-.156-.655-.252-1.33-.252-2s.096-1.345.252-2h3.496c.156.655.252 1.33.252 2s-.096 1.345-.252 2zm2.834 2c-.351.841-.746 1.583-1.086 2.16-.34-.577-.734-1.319-1.086-2.16zm-8.086-4c0-.695.105-1.366.295-2h2.917c-.129.654-.212 1.324-.212 2s.083 1.346.212 2h-2.917c-.19-.634-.295-1.305-.295-2zm5.914-4c.351-.841.746-1.583 1.086-2.16.34.577.734 1.319 1.086 2.16zm-.908-2.707c-.415.749-.866 1.674-1.237 2.707h-2.505c.897-1.282 2.209-2.25 3.742-2.707zm-3.742 10.707h2.505c.371 1.033.822 1.958 1.237 2.707-1.533-.457-2.845-1.425-3.742-2.707zm7.73 2.707c.415-.749.866-1.674 1.237-2.707h2.505c-.897 1.282-2.209 2.25-3.742 2.707zm11.006-15.707h2v2h-2zm0 4h2v2h-2zm0 4h2v2h-2zm-28 8h2v2h-2zm0-4h2v2h-2zm0-4h2v2h-2z" fill="url(#SVGID_1_)"/></svg>